<svg width="132" height="128" viewBox="0 0 132 128" fill="none" xmlns="http://www.w3.org/2000/svg">
<path d="M0 76.9099L79.3133 0H132L0 128V76.9099Z" fill="#D1C1B1"/>
<path d="M26.9697 59.857C26.7087 60.0971 26.4791 60.231 26.2807 60.2586C26.0917 60.2776 25.8856 60.166 25.6626 59.9236C25.5168 59.7652 25.4115 59.6039 25.3466 59.4399C25.2817 59.2758 25.2401 59.0903 25.2218 58.8834C25.2226 58.8655 25.2229 58.8565 25.2229 58.8565C25.4507 58.7674 25.7744 58.5298 26.1938 58.1439L28.3375 56.0681C28.7476 55.6907 29.0565 55.4839 29.2642 55.4477C29.4726 55.3937 29.6969 55.4971 29.9371 55.7581C30.1429 55.9818 30.3096 56.2846 30.4372 56.6664C30.2466 56.7212 29.9137 56.9673 29.4383 57.4047C29.2332 57.5934 29.0045 57.8125 28.7521 58.062C28.4997 58.3115 28.2469 58.5699 27.9937 58.8373C27.5721 59.2769 27.2307 59.6168 26.9697 59.857ZM25.4012 57.4789C25.1402 57.7191 24.9106 57.853 24.7122 57.8806C24.5232 57.8996 24.3171 57.7879 24.0941 57.5456C23.9483 57.3871 23.843 57.2259 23.7781 57.0618C23.7132 56.8978 23.6716 56.7123 23.6533 56.5053C23.6541 56.4874 23.6544 56.4785 23.6544 56.4785C23.8822 56.3893 24.2059 56.1518 24.6253 55.7658L26.769 53.6901C27.1791 53.3127 27.488 53.1059 27.6957 53.0697C27.9041 53.0156 28.1284 53.1191 28.3686 53.3801C28.5744 53.6038 28.7411 53.9065 28.8687 54.2883C28.6781 54.3432 28.3452 54.5893 27.8698 55.0267C27.6647 55.2154 27.436 55.4345 27.1836 55.684C26.9312 55.9334 26.6784 56.1919 26.4252 56.4592C26.0036 56.8989 25.6622 57.2388 25.4012 57.4789ZM41.5118 70.1376C41.1017 70.515 40.6666 70.8465 40.2065 71.1322C39.7464 71.4178 39.166 71.6851 38.4654 71.9338L37.6089 69.5719L40.3493 67.0503L42.0571 69.6359L41.5118 70.1376ZM38.5617 72.8522C38.0397 73.3325 37.5028 73.5253 36.951 73.4307C36.3991 73.336 35.8573 72.9997 35.3255 72.4218C34.8967 71.9558 34.3362 71.2063 33.6441 70.1735C32.9519 69.1407 32.1352 67.8697 31.194 66.3604C30.8233 65.7892 30.2337 64.8772 29.4252 63.6244L31.0305 64.4711L27.9923 63.8069C28.1387 63.0868 28.3542 62.4324 28.6386 61.8437C28.9238 61.237 29.2901 60.7278 29.7376 60.3161C30.1384 59.9473 30.4956 59.7649 30.8091 59.769C31.132 59.7645 31.4522 59.9347 31.7695 60.2796C32.0011 60.5312 32.2597 60.8871 32.5454 61.3472C32.831 61.8073 33.1995 62.4322 33.6507 63.2219C34.479 64.6458 35.1963 65.8276 35.8027 66.7672C36.4184 67.6982 37.0865 68.5552 37.8069 69.3381C38.2358 69.8042 38.5682 70.1094 38.8042 70.2536C39.0496 70.3893 39.3505 70.4825 39.707 70.5332C39.6612 70.9885 39.5313 71.4179 39.3173 71.8213C39.1212 72.2255 38.8693 72.5692 38.5617 72.8522ZM40.3493 67.0503C40.5078 66.9045 40.6957 66.9124 40.9131 67.0738C41.1219 67.2259 41.3699 67.5141 41.6571 67.9384C41.9356 68.3534 42.1094 68.7013 42.1784 68.982C42.256 69.2721 42.2156 69.4901 42.0571 69.6359L40.3493 67.0503ZM40.3623 67.0384L43.3264 64.3109L42.5189 65.622C42.0859 65.0393 41.6809 64.4308 41.3039 63.7966C40.9269 63.1623 40.5135 62.4325 40.0637 61.607C39.9716 61.4507 39.8881 61.3038 39.8131 61.1663C39.7389 61.0108 39.6597 60.8685 39.5754 60.7395L40.2433 61.4934L38.0608 60.9455C38.2166 60.2169 38.4464 59.5407 38.7502 58.9168C39.0548 58.2751 39.4168 57.7612 39.8363 57.3753C40.1998 57.0408 40.5384 56.8756 40.852 56.8796C41.1663 56.8658 41.4607 57.008 41.7351 57.3063C41.9067 57.4927 42.1263 57.8156 42.3941 58.275C42.6626 58.7164 42.9432 59.1898 43.236 59.695C43.7372 60.5764 44.147 61.2837 44.4655 61.8169C44.7754 62.3407 45.1129 62.8478 45.478 63.3381L45.929 66.0731L42.0701 69.6239L40.3623 67.0384ZM42.0701 69.6239C41.9117 69.7697 41.7237 69.7619 41.5063 69.6005C41.2975 69.4484 41.0495 69.1602 40.7624 68.7358C40.4838 68.3209 40.31 67.973 40.241 67.6922C40.1634 67.4021 40.2039 67.1842 40.3623 67.0384L42.0701 69.6239ZM38.1203 56.6047C37.7381 56.9563 37.3451 57.1372 36.9413 57.1473C36.5375 57.1574 36.1855 56.9994 35.8853 56.6731C35.4479 56.1978 35.2504 55.6651 35.2928 55.0752C35.3353 54.4853 35.6035 53.9631 36.0975 53.5085C36.4797 53.1569 36.877 52.9807 37.2894 52.9799C37.7025 52.9612 38.0592 53.115 38.3594 53.4412C38.7968 53.9166 38.9896 54.4535 38.9378 55.052C38.8868 55.6326 38.6143 56.1501 38.1203 56.6047ZM54.4284 58.2523C54.0183 58.6297 53.5832 58.9612 53.1231 59.2469C52.663 59.5325 52.0826 59.7997 51.382 60.0485L50.5255 57.6866L53.2659 55.165L54.9737 57.7506L54.4284 58.2523ZM51.4783 60.9669C50.9563 61.4472 50.4194 61.64 49.8675 61.5453C49.3157 61.4507 48.7739 61.1144 48.2421 60.5365C47.8133 60.0704 47.2528 59.321 46.5606 58.2882C45.8685 57.2554 45.0518 55.9844 44.1105 54.4751C43.7398 53.9039 43.1503 52.9919 42.3418 51.7391L43.947 52.5858L40.9088 51.9216C41.0553 51.2015 41.2708 50.5471 41.5552 49.9583C41.8404 49.3516 42.2067 48.8425 42.6541 48.4308C43.0549 48.062 43.4121 47.8796 43.7257 47.8837C44.0486 47.8792 44.3687 48.0494 44.6861 48.3942C44.9177 48.6459 45.1763 49.0018 45.4619 49.4619C45.7476 49.922 46.116 50.5469 46.5673 51.3366C47.3956 52.7605 48.1129 53.9423 48.7193 54.8819C49.3349 55.8129 50.003 56.6698 50.7235 57.4528C51.1523 57.9189 51.4848 58.224 51.7208 58.3683C51.9662 58.504 52.2671 58.5972 52.6235 58.6479C52.5777 59.1032 52.4478 59.5325 52.2338 59.936C52.0377 60.3402 51.7859 60.6838 51.4783 60.9669ZM53.2659 55.165C53.4243 55.0192 53.6123 55.027 53.8297 55.1885C54.0385 55.3406 54.2865 55.6288 54.5736 56.0531C54.8522 56.4681 55.026 56.8159 55.095 57.0967C55.1726 57.3868 55.1321 57.6048 54.9737 57.7506L53.2659 55.165ZM67.2905 46.4171C66.9083 46.7688 66.4896 46.9217 66.0343 46.8759C65.579 46.8301 65.1433 46.6371 64.7271 46.2971L66.3978 45.8959L65.0415 47.1439L63.1374 44.4292C63.1553 44.4299 63.1729 44.4396 63.19 44.4582C63.1986 44.4676 63.2118 44.4726 63.2297 44.4733C63.4229 44.571 63.6171 44.6418 63.8125 44.6858C64.0087 44.7119 64.2292 44.6897 64.4742 44.6192C64.7285 44.5401 64.9908 44.3762 65.2611 44.1275L66.4915 42.9954L68.1993 45.5809L67.2905 46.4171ZM53.2789 55.1531L62.0174 47.1123L61.8452 48.6649C61.3821 48.1616 60.888 47.7556 60.363 47.4469C59.8294 47.1289 59.3056 46.8964 58.7918 46.7495C58.2694 46.5934 57.7491 46.4955 57.2308 46.456C57.1144 46.6664 56.9196 46.9317 56.6464 47.252C56.3731 47.5723 56.0966 47.8611 55.817 48.1184C55.1179 48.7617 54.3683 49.2191 53.5681 49.4906C52.7594 49.7528 51.9857 49.8192 51.247 49.6899C50.5091 49.5427 49.8871 49.1941 49.3811 48.6442C49.2095 48.4578 49.0781 48.2775 48.9867 48.1034C48.8961 47.9113 48.803 47.6699 48.7076 47.3791C50.1829 46.6067 51.8093 45.6524 53.5867 44.5161C55.3641 43.3798 56.6955 42.4043 57.581 41.5895C57.9911 41.2121 58.334 40.8364 58.6095 40.4624C58.8764 40.0791 59.0434 39.7274 59.1105 39.4075C59.6188 39.4734 60.0006 39.561 60.256 39.6703C60.5122 39.7616 60.7775 39.9564 61.052 40.2547C61.5494 40.7953 61.738 41.3276 61.6176 41.8514C61.4972 42.3753 61.0362 43.0061 60.2346 43.7437C60.2159 43.7609 60.1973 43.778 60.1786 43.7952C60.16 43.8123 60.1414 43.8295 60.1227 43.8466C59.9829 43.9753 59.7907 44.178 59.5461 44.4546C59.3015 44.7313 58.8776 45.2247 58.2744 45.9347L59.6462 43.6655C60.4374 43.6087 61.2044 43.7034 61.9472 43.9494C62.6814 44.1861 63.3317 44.5 63.8981 44.8911C64.4739 45.2736 64.9279 45.6735 65.2601 46.0907L65.5847 47.9867L54.9867 57.7386L53.2789 55.1531ZM54.9867 57.7386C54.8282 57.8844 54.6403 57.8766 54.4229 57.7152C54.2141 57.563 53.9661 57.2748 53.6789 56.8505C53.4004 56.4355 53.2266 56.0877 53.1576 55.8069C53.08 55.5168 53.1204 55.2989 53.2789 55.1531L54.9867 57.7386ZM66.4915 42.9954C66.6499 42.8496 66.8379 42.8574 67.0553 43.0188C67.2641 43.1709 67.5121 43.4591 67.7992 43.8834C68.0778 44.2984 68.2516 44.6463 68.3206 44.9271C68.3982 45.2171 68.3577 45.4351 68.1993 45.5809L66.4915 42.9954ZM63.1419 57.2574C62.7597 57.6091 62.3667 57.79 61.9629 57.8001C61.5591 57.8102 61.2071 57.6521 60.9069 57.3259C60.4695 56.8505 60.272 56.3179 60.3145 55.728C60.3569 55.1381 60.6252 54.6159 61.1192 54.1613C61.5013 53.8096 61.8943 53.6288 62.2981 53.6187C62.7199 53.6093 63.0808 53.7677 63.381 54.094C63.8184 54.5694 64.007 55.1016 63.9466 55.6908C63.9042 56.2806 63.6359 56.8029 63.1419 57.2574ZM66.5095 42.9788L67.4602 42.1039C67.7306 41.8552 67.9254 41.5899 68.0446 41.308C68.1647 41.0082 68.2256 40.7284 68.2275 40.4685C68.2207 40.1992 68.167 39.9819 68.0663 39.8163L65.1575 35.3925C65.282 34.1247 65.5464 33.0465 65.9509 32.1579C66.3554 31.2693 66.9491 30.4648 67.7321 29.7443C68.599 28.9467 69.4998 28.4104 70.4345 28.1355C71.3701 27.8427 72.2804 27.8313 73.1656 28.1012C74.0516 28.3532 74.8548 28.8706 75.5753 29.6536C76.1499 30.2781 76.5995 31.0005 76.924 31.8208C77.2577 32.6325 77.4407 33.5142 77.4729 34.4657C77.5143 35.4087 77.3979 36.3765 77.1235 37.3691L71.9643 42.1164L71.0996 41.5695L70.9878 41.6724C71.0661 41.9446 71.048 42.271 70.9336 42.6518C70.8285 43.0239 70.6081 43.3643 70.2726 43.6731L68.2173 45.5643L66.5095 42.9788ZM70.6201 39.1964L74.9544 35.2081L73.9052 36.5092C74.0323 36.2545 74.0884 35.8758 74.0735 35.3732C74.0593 34.8527 73.9477 34.3012 73.7389 33.7188C73.5214 33.1271 73.194 32.5935 72.7566 32.1182C72.3106 31.6335 71.8467 31.3632 71.3649 31.3073C70.8925 31.2428 70.386 31.4593 69.8454 31.9568C69.4539 32.317 69.136 32.7386 68.8919 33.2215C68.657 33.6958 68.5081 34.1512 68.4451 34.5879L67.9108 32.8848L72.2393 39.3847L70.6201 39.1964ZM68.2173 45.5643C68.0588 45.7101 67.8709 45.7023 67.6535 45.5409C67.4447 45.3888 67.1967 45.1005 66.9095 44.6762C66.631 44.2613 66.4572 43.9134 66.3882 43.6326C66.3106 43.3425 66.351 43.1246 66.5095 42.9788L68.2173 45.5643Z" fill="#491F07"/>
</svg>
